<?xml version="1.0" encoding="UTF-8" standalone="no"?>
<!-- Created with Inkscape (http://www.inkscape.org/) -->

<svg
   xmlns:dc="http://purl.org/dc/elements/1.1/"
   xmlns:cc="http://creativecommons.org/ns#"
   xmlns:rdf="http://www.w3.org/1999/02/22-rdf-syntax-ns#"
   xmlns:svg="http://www.w3.org/2000/svg"
   xmlns="http://www.w3.org/2000/svg"
   xmlns:sodipodi="http://sodipodi.sourceforge.net/DTD/sodipodi-0.dtd"
   xmlns:inkscape="http://www.inkscape.org/namespaces/inkscape"
   width="204.09406"
   height="204.09406"
   viewBox="0 0 204.09406 204.09406"
   id="svg5341"
   version="1.1"
   inkscape:version="0.91 r13725"
   sodipodi:docname="Logo_small_white.svg"
   inkscape:export-filename="/home/moe/Dokumente/Hal/Logo/Logo_small_white.svg.png"
   inkscape:export-xdpi="71"
   inkscape:export-ydpi="71">
  <sodipodi:namedview
     id="base"
     pagecolor="#000000"
     bordercolor="#666666"
     borderopacity="1.0"
     inkscape:pageopacity="0"
     inkscape:pageshadow="2"
     inkscape:zoom="4.1304486"
     inkscape:cx="102.04703"
     inkscape:cy="102.04703"
     inkscape:document-units="px"
     inkscape:current-layer="layer1"
     showgrid="false"
     fit-margin-top="12"
     fit-margin-left="12"
     fit-margin-right="12"
     fit-margin-bottom="12"
     units="px"
     inkscape:window-width="1680"
     inkscape:window-height="1022"
     inkscape:window-x="1600"
     inkscape:window-y="0"
     inkscape:window-maximized="1" />
  <defs
     id="defs5343" />
  <metadata
     id="metadata5346">
    <rdf:RDF>
      <cc:Work
         rdf:about="">
        <dc:format>image/svg+xml</dc:format>
        <dc:type
           rdf:resource="http://purl.org/dc/dcmitype/StillImage" />
        <dc:title></dc:title>
      </cc:Work>
    </rdf:RDF>
  </metadata>
  <g
     transform="translate(-340.81012,-527.45801)"
     id="layer1"
     inkscape:groupmode="layer"
     inkscape:label="Ebene 1">
    <g
       id="g5366">
      <rect
         style="display:inline;fill:none;fill-opacity:1;fill-rule:evenodd;stroke:#ffffff;stroke-width:12;stroke-linecap:butt;stroke-linejoin:miter;stroke-miterlimit:4;stroke-dasharray:none;stroke-opacity:1;image-rendering:auto"
         id="rect4615"
         width="168.09406"
         height="168.09406"
         x="358.81012"
         y="545.45801" />
      <g
         style="font-style:normal;font-variant:normal;font-weight:bold;font-stretch:normal;font-size:68.84605408px;line-height:125%;font-family:Hack;-inkscape-font-specification:'Hack, Bold';text-align:start;letter-spacing:0px;word-spacing:0px;writing-mode:lr-tb;text-anchor:start;display:inline;fill:#ffffff;fill-opacity:1;stroke:none;stroke-width:1px;stroke-linecap:butt;stroke-linejoin:miter;stroke-opacity:1"
         id="text4617">
        <path
           inkscape:connector-curvature="0"
           d="m 388.57466,603.51524 9.91679,0 0,19.12764 12.40439,0 0,-19.12764 9.91679,0 0,50.18904 -9.91679,0 0,-22.32118 -12.40439,0 0,22.32118 -9.91679,0 0,-50.18904 z"
           style="font-style:normal;font-variant:normal;font-weight:bold;font-stretch:normal;font-size:68.84605408px;line-height:125%;font-family:Hack;-inkscape-font-specification:'Hack, Bold';text-align:start;writing-mode:lr-tb;text-anchor:start"
           id="path5360" />
        <path
           inkscape:connector-curvature="0"
           d="m 441.99086,654.67916 q -3.05907,0 -5.54668,-0.84041 -2.45398,-0.84041 -4.26926,-2.55483 -3.59694,-3.39524 -3.59694,-9.47978 0,-3.22716 1.00849,-5.68115 1.0421,-2.45398 3.26078,-4.06756 4.26926,-3.12631 13.21118,-3.12631 l 6.82409,0 0,-1.6472 q 0,-1.2438 -0.47062,-2.15144 -0.43701,-0.90764 -1.2438,-1.47911 -0.87403,-0.63871 -2.21868,-0.90764 -1.31103,-0.30255 -3.05907,-0.30255 -1.61358,0 -3.32801,0.23532 -1.68081,0.2017 -3.32801,0.63871 -1.61358,0.43701 -3.36162,1.17656 -1.74805,0.70595 -3.56332,1.68082 l 0,-8.40406 q 1.41188,-0.57148 3.15992,-1.10934 1.78166,-0.57147 3.46248,-0.87402 1.37826,-0.26893 3.36162,-0.47063 1.98336,-0.2017 4.20203,-0.2017 2.35314,0 4.23564,0.26893 1.91613,0.26893 3.42886,0.77318 1.54635,0.50424 2.6893,1.21018 1.17657,0.70594 2.05059,1.54635 0.90764,0.90764 1.61358,2.08421 0.70594,1.17656 1.17657,2.79014 0.50424,1.57997 0.73955,3.63056 0.23532,2.01697 0.23532,4.63904 0,0.63871 -0.0336,1.68081 0,1.0421 -0.0336,2.2859 0,1.2438 -0.0336,2.58845 0,1.31104 -0.0336,2.48761 0,1.17656 -0.0336,2.0842 0,0.90764 0,1.31104 0,0.70594 0,1.41188 0.0336,0.70594 0.0672,1.17657 0.0672,0.67232 0.10085,1.34465 0.0672,0.6387 0.13446,1.07572 0.10085,0.67232 0.23532,1.31103 0.13446,0.60509 0.23531,0.94125 0.16808,0.50425 0.4034,1.04211 0.26893,0.53786 0.53786,0.90763 l -9.74871,0 q -0.30255,-0.50424 -0.57148,-1.0421 -0.23531,-0.53786 -0.36978,-0.90764 -0.10085,-0.33616 -0.23531,-0.94125 -0.13447,-0.63871 -0.2017,-1.31103 -1.84889,2.45398 -4.7735,3.83225 -1.41189,0.67232 -2.92462,1.00848 -1.47911,0.33617 -3.39524,0.33617 z m 2.75653,-6.8241 q 1.88251,0 3.39524,-0.70594 1.51273,-0.73956 2.58845,-2.25229 2.15144,-2.891 2.15144,-8.20236 l 0,-0.67233 -3.9331,0 q -5.54668,0 -7.69811,1.41189 -2.18506,1.41188 -2.18506,4.7735 0,1.37827 0.36978,2.38675 0.36978,0.97488 1.14295,1.74805 1.51273,1.51273 4.16841,1.51273 z"
           style="font-style:normal;font-variant:normal;font-weight:bold;font-stretch:normal;font-size:68.84605408px;line-height:125%;font-family:Hack;-inkscape-font-specification:'Hack, Bold';text-align:start;writing-mode:lr-tb;text-anchor:start"
           id="path5362" />
        <path
           inkscape:connector-curvature="0"
           d="m 493.28924,653.97321 q -7.02579,0 -10.08487,-3.63055 -3.05908,-3.59694 -3.05908,-12.06823 l 0,-29.31336 -9.98402,0 0,-7.56365 19.83358,0 0,36.87701 q 0,4.40373 1.37826,6.28624 1.34465,1.84889 4.67266,1.84889 l 7.8662,0 0,7.56365 -10.62273,0 0,0 z"
           style="font-style:normal;font-variant:normal;font-weight:bold;font-stretch:normal;font-size:68.84605408px;line-height:125%;font-family:Hack;-inkscape-font-specification:'Hack, Bold';text-align:start;writing-mode:lr-tb;text-anchor:start"
           id="path5364" />
      </g>
    </g>
  </g>
</svg>
